<svg xmlns="http://www.w3.org/2000/svg" width="236.745" height="296.241" viewBox="0 0 62.639 78.38"><path d="m658.116 707.216-21.984-7.117c-6.935-.527-26.897 8.081-26.443 17.458.632 13.084 19.007-2.49 24.323-4.78-5.447 4.146-12.65 21.183-3.289 23.351 8.369 1.938 13.165-13.627 15.344-19.358 2.752 23.007 19.416-12.517 12.049-9.554m36.586-3.203 21.824-7.592c6.924-.677 27.065 7.498 26.815 16.883-.35 13.093-19.057-2.079-24.422-4.252 5.537 4.024 13.107 20.903 3.794 23.272-8.325 2.119-13.457-13.34-15.759-19.021-2.254 23.062-19.681-12.093-12.252-9.29" style="fill:#ffbf4d" transform="translate(-145.391 -127.396)scale(.26458)"/><path d="M709.572 613.673c14.767-5.686 34.2 2.483 43.89 14.069 22.858 27.338-14.316 55.913-38.448 66.319zm-95.87 5.215c-15.662 2.25-28.632 18.868-31.427 33.711-6.598 35.021 39.798 41.8 65.939 39.095z" style="fill:#914e20" transform="translate(-145.391 -127.396)scale(.26458)"/><path d="M716.826 624.578c-30.727-3.049-61.801-5.086-92.362-9.269-7.695-1.024-16.999 25.954-18.386 31.669-13.772 56.812 70.975 78.44 114.514 51.391 12.252-7.612 19.932-22.612 18.359-37.018-1.04-9.517-9.907-35.56-22.125-36.773" style="fill:#b56a37" transform="translate(-145.391 -127.396)scale(.26458)"/><path d="M715.977 642.624c-13.968 5.868-29.15 9.035-44.154 9.627-12.44.489-25.079-.383-37.197-3.35-3.518-.861-6.96-2.087-10.431-3.153q-1.137-.21-2.264-.441c.358 67.11 100.611 64.898 96.552 6.816-.077-1.1-.995-5.315-2.506-9.499" style="fill:#c98353" transform="translate(-145.391 -127.396)scale(.26458)"/><path d="M681.604 529.878c10.603-7.281.091-33.269-13.871-9.635.816-6.278 1.466-17.471-7.751-15.474-8.254 1.794-8.728 13.566-12.579 19.344-4.611 6.915-11.501 10.416-18.889 14.082-15.48 7.679-31.427 12.99-39.13 29.94-8.786 19.334-6.102 43.051 11.151 57.116 33.65 27.432 112.569 20.519 135.805-18.115 11.65-19.381 13.26-47.205-5.888-62.205-12.335-9.66-33.054-18.225-48.848-15.053" style="fill:#d49665" transform="translate(-145.391 -127.396)scale(.26458)"/><path d="M699.914 544.067c-17.398-2.154-33.247 10.204-35.402 27.599a31.8 31.8 0 0 0-.138 6.488c-3.361-11.936-13.589-21.294-26.665-22.913-17.398-2.155-33.248 10.203-35.401 27.601-2.156 17.398 10.202 33.247 27.599 35.401 17.398 2.153 33.249-10.204 35.403-27.601.271-2.194.312-4.365.138-6.486 3.36 11.935 13.588 21.295 26.666 22.913 17.397 2.154 33.246-10.203 35.399-27.6 2.156-17.398-10.201-33.247-27.599-35.402" style="fill:#ffefd2" transform="translate(-145.391 -127.396)scale(.26458)"/><path d="M585.97 579.415s-4.593-22.575 3.06-50.999c0 0 16.403 3.043 28.981 20.3zm153.673-24.261s-3.866-22.709-21.263-46.455c0 0-14.198 8.761-19.698 29.395z" style="fill:#d49665" transform="translate(-145.391 -127.396)scale(.26458)"/><path d="M713.501 571.65c2.67 8.965-2.435 18.396-11.404 21.064-8.961 2.67-18.392-2.437-21.063-11.398-2.668-8.966 2.435-18.397 11.4-21.065 8.964-2.672 18.396 2.432 21.067 11.399" style="fill:#ffd98b" transform="translate(-145.391 -127.396)scale(.26458)"/><path d="M709.053 572.974c1.94 6.511-1.768 13.356-8.277 15.293-6.509 1.94-13.354-1.768-15.294-8.274-1.939-6.511 1.769-13.358 8.276-15.296 6.509-1.938 13.356 1.767 15.295 8.277" style="fill:#401f0d" transform="translate(-145.391 -127.396)scale(.26458)"/><path d="M704.306 572.412a5.07 5.07 0 1 1-9.718 2.897 5.07 5.07 0 0 1 9.718-2.897" style="fill:#fff" transform="translate(-145.391 -127.396)scale(.26458)"/><path d="M650.417 581.494c2.667 8.966-2.436 18.397-11.403 21.064-8.964 2.671-18.394-2.435-21.064-11.397-2.671-8.967 2.436-18.398 11.4-21.065 8.963-2.67 18.397 2.432 21.067 11.398" style="fill:#ffd98b" transform="translate(-145.391 -127.396)scale(.26458)"/><path d="M645.969 582.819c1.938 6.509-1.768 13.354-8.278 15.293-6.508 1.94-13.355-1.768-15.294-8.275-1.938-6.512 1.768-13.357 8.276-15.294 6.511-1.939 13.358 1.766 15.296 8.276" style="fill:#401f0d" transform="translate(-145.391 -127.396)scale(.26458)"/><path d="M641.219 582.259a5.067 5.067 0 0 1-3.408 6.307 5.077 5.077 0 0 1-6.308-3.415 5.07 5.07 0 0 1 3.413-6.305 5.065 5.065 0 0 1 6.303 3.413" style="fill:#fff" transform="translate(-145.391 -127.396)scale(.26458)"/><path d="m673.614 617.334-15.524-10.275 7.357-22.903 15.217 18.311z" style="fill:#ffbf4d" transform="translate(-145.391 -127.396)scale(.26458)"/><path d="m670.864 605.468-12.774 1.591 14.212 3.826 8.362-8.418z" style="fill:#914e20" transform="translate(-145.391 -127.396)scale(.26458)"/></svg>