<svg xmlns="http://www.w3.org/2000/svg" width="193.293" height="187.132" viewBox="0 0 51.142 49.512"><defs><radialGradient id="a" cx="335.735" cy="226.155" r="291.728" gradientUnits="userSpaceOnUse"><stop offset=".13" style="stop-color:#56a3e2"/><stop offset=".469" style="stop-color:#3d51b0"/><stop offset=".647" style="stop-color:#312b99"/></radialGradient><radialGradient id="b" cx="400.871" cy="289.033" r="155.821" gradientUnits="userSpaceOnUse"><stop offset="0" style="stop-color:#56a3e2;stop-opacity:0"/><stop offset=".117" style="stop-color:#4b7ecb;stop-opacity:.2002"/><stop offset=".253" style="stop-color:#405ab6;stop-opacity:.4324"/><stop offset=".38" style="stop-color:#3840a6;stop-opacity:.6502"/><stop offset=".495" style="stop-color:#33309c;stop-opacity:.8457"/><stop offset=".585" style="stop-color:#312b99"/></radialGradient><radialGradient id="c" cx="375.918" cy="265.64" r="184.875" gradientUnits="userSpaceOnUse"><stop offset=".13" style="stop-color:#56a3e2"/><stop offset=".237" style="stop-color:#4b7ecb"/><stop offset=".362" style="stop-color:#405ab6"/><stop offset=".478" style="stop-color:#3840a6"/><stop offset=".583" style="stop-color:#33309c"/><stop offset=".666" style="stop-color:#312b99"/></radialGradient><radialGradient id="d" cx="466.911" cy="280.858" r="130.052" gradientUnits="userSpaceOnUse"><stop offset="0" style="stop-color:#56a3e2"/><stop offset=".133" style="stop-color:#4b7ecb"/><stop offset=".288" style="stop-color:#405ab6"/><stop offset=".433" style="stop-color:#3840a6"/><stop offset=".563" style="stop-color:#33309c"/><stop offset=".666" style="stop-color:#312b99"/></radialGradient><radialGradient id="e" cx="432.149" cy="303.569" r="188.75" gradientUnits="userSpaceOnUse"><stop offset=".13" style="stop-color:#56a3e2"/><stop offset=".237" style="stop-color:#4b7ecb"/><stop offset=".362" style="stop-color:#405ab6"/><stop offset=".478" style="stop-color:#3840a6"/><stop offset=".583" style="stop-color:#33309c"/><stop offset=".666" style="stop-color:#312b99"/></radialGradient><radialGradient id="f" cx="481.493" cy="258.677" r="158.583" gradientUnits="userSpaceOnUse"><stop offset=".13" style="stop-color:#56a3e2"/><stop offset=".237" style="stop-color:#4b7ecb"/><stop offset=".362" style="stop-color:#405ab6"/><stop offset=".478" style="stop-color:#3840a6"/><stop offset=".583" style="stop-color:#33309c"/><stop offset=".666" style="stop-color:#312b99"/></radialGradient><radialGradient id="g" cx="351.711" cy="261.516" r="163.504" gradientUnits="userSpaceOnUse"><stop offset=".13" style="stop-color:#56a3e2"/><stop offset=".237" style="stop-color:#4b7ecb"/><stop offset=".362" style="stop-color:#405ab6"/><stop offset=".478" style="stop-color:#3840a6"/><stop offset=".583" style="stop-color:#33309c"/><stop offset=".666" style="stop-color:#312b99"/></radialGradient><radialGradient id="h" cx="638.538" cy="312.327" r="408.787" gradientUnits="userSpaceOnUse"><stop offset=".13" style="stop-color:#56a3e2"/><stop offset=".237" style="stop-color:#4b7ecb"/><stop offset=".362" style="stop-color:#405ab6"/><stop offset=".478" style="stop-color:#3840a6"/><stop offset=".583" style="stop-color:#33309c"/><stop offset=".666" style="stop-color:#312b99"/></radialGradient><radialGradient id="i" cx="496.949" cy="276.459" r="251.151" gradientUnits="userSpaceOnUse"><stop offset=".13" style="stop-color:#56a3e2"/><stop offset=".237" style="stop-color:#4b7ecb"/><stop offset=".362" style="stop-color:#405ab6"/><stop offset=".478" style="stop-color:#3840a6"/><stop offset=".583" style="stop-color:#33309c"/><stop offset=".666" style="stop-color:#312b99"/></radialGradient></defs><path d="M486.988 276.575h-35.194l-17.004 24.209-17.004-24.209h-35.194l-19.131 34.045 13.985 43.893 57.344 43.499 57.344-43.499 13.985-43.893z" style="fill:url(#a)" transform="translate(-89.733 -65.115)scale(.26458)"/><path d="M476.45 297.548h-28.089l-13.571 17.217-13.571-17.217H393.13l-15.269 24.211 11.162 31.216 45.767 30.934 45.767-30.934 11.162-31.216z" style="fill:url(#b)" transform="translate(-89.733 -65.115)scale(.26458)"/><path d="m377.861 321.759-14.4-11.139 19.131-34.045 10.538 20.973z" style="fill:url(#c)" transform="translate(-89.733 -65.115)scale(.26458)"/><path d="m491.719 321.759 14.4-11.139-13.985 43.893-11.577-1.538z" style="fill:url(#d)" transform="translate(-89.733 -65.115)scale(.26458)"/><path d="m491.719 321.759-11.162 31.216-45.767 30.934 41.66-86.361z" style="fill:url(#e)" transform="translate(-89.733 -65.115)scale(.26458)"/><path d="m451.794 276.575-3.433 20.973-13.571 17.217v-13.981z" style="fill:url(#f)" transform="translate(-89.733 -65.115)scale(.26458)"/><path d="M434.79 300.784v13.981l-13.571-17.217-3.433-20.973z" style="fill:url(#g)" transform="translate(-89.733 -65.115)scale(.26458)"/><path d="m486.057 356.797-45.767 30.935-30.057-20.316 83.122-31.027z" style="fill:url(#h)" transform="translate(-89.733 -65.115)scale(.26458)"/><path d="m393.13 297.548-15.269 24.211 7.433 20.787 35.925-44.998z" style="fill:url(#i)" transform="translate(-89.733 -65.115)scale(.26458)"/></svg>