<svg xmlns="http://www.w3.org/2000/svg" width="193.293" height="187.132" viewBox="0 0 51.142 49.512"><g style="clip-rule:evenodd;fill-rule:nonzero;stroke-linecap:round;stroke-linejoin:round"><g fill="#c9b09a"><path d="m12.396 27.855 29.415-.248a1.824 1.824 0 0 1 1.829 1.82l.052 6.386a1.824 1.824 0 0 1-1.798 1.85l-29.415.247a1.823 1.823 0 0 1-1.828-1.819l-.053-6.387a1.825 1.825 0 0 1 1.798-1.85"/><path d="m9.302 35.446-.588-18.03c-.045-1.386 1.412-2.53 3.254-2.555l3.33-.046c1.842-.025 3.372 1.078 3.417 2.465l.587 18.03c.045 1.386-1.411 2.53-3.253 2.554l-3.33.046c-1.842.025-3.372-1.078-3.417-2.464"/><path d="M25.675 1.102c-.767-.106-1.518.09-2.063.612L9.452 15.315c-1.088 1.046-.96 2.997.29 4.367l2.254 2.476c1.25 1.369 3.145 1.643 4.234.598l10.036-9.638-.372 27.967s-.62 4.086.472 5.089c1.028.943 4.342.818 4.342.818s3.653.375 4.749-.388c.913-.636.445-5.31.445-5.31l.468-35.13c.015-1.138.39-3.948 0-4.403-.588-.687-2.206-.525-3.272-.548L29.77 1.13c-.778-.017-3.377.072-4.096-.028"/></g><path fill="#d8b0ae" d="m27.374 26.434.039 2.6c.014.95.652 1.477 1.425 1.178l2.117-.819 2.118-.818c.773-.3.761-1.069-.026-1.72l-2.156-1.78-2.155-1.782c-.788-.65-1.415-.408-1.4.542z"/><path fill="#b1935d" d="M27.733 22.96c-.22.075-.35.319-.398.663.198.044.412.138.647.336l2.157 1.818 2.155 1.812c.451.38.61.785.539 1.12l.203-.07c.803-.278.813-1.038.025-1.701l-2.157-1.818-2.155-1.813c-.394-.331-.753-.439-1.016-.348"/><path fill="#150b14" d="M37.457 36.026c-1.005.158-2.026.572-2.855.922 1.618-.395 3.666-.881 5.042.372.175.16.448.145.61-.03a.415.415 0 0 0-.03-.594c-.776-.717-1.761-.828-2.767-.67"/><path fill="#150b14" d="M38.826 34.822c-1.908-.026-3.926.648-5.547 1.413 2.325-.77 4.773-1.033 7.138-.313a.426.426 0 0 0 .535-.282.426.426 0 0 0-.283-.536 6.4 6.4 0 0 0-1.843-.282m-2.945-1.279a32 32 0 0 0-4.282.684c1.653-.194 3.317-.27 4.981-.164 1.175.076 2.34.252 3.51.387a.425.425 0 0 0 .476-.372.425.425 0 0 0-.372-.475 21 21 0 0 0-4.313-.06"/><path fill="#6a884e" d="M35.041 31.514c0-.523.42-.947.936-.947s.935.424.935.947a.94.94 0 0 1-.935.946.94.94 0 0 1-.936-.946"/><path d="M35.86 31.442c0-.483.052-.875.117-.875.064 0 .117.392.117.875s-.053.874-.117.874c-.065 0-.117-.391-.117-.874"/><path fill="#150b14" d="m41.836 28.107-2.584.027c-.079.297-.179.583-.179.904 0 1.978 1.578 3.588 3.533 3.588h1.086l-.027-2.698c-.009-1.013-.827-1.83-1.829-1.821m-8.051 16.871a.43.43 0 0 0-.417.446c.446 1.209.56 1.471.446 1.204a4 4 0 0 0-.416-.772c-.089-.123.108.29.164.43.102.26.225.535.342.789.059.129.206.525.178.386-.057-.283.179.387.179.387s-.014-1.512-.016-1.234c0 .27.019.536-.014.803-.017.14-.022-.276-.03-.416-.015-.258-.033-.56-.015-.818.01-.133.028-.533.045-.402.035.276.008.008 0-.386a.43.43 0 0 0-.446-.417m-2.231.208a.433.433 0 0 0-.446.417c.343 1.355.43 1.652.342 1.353-.089-.303-.185-.603-.342-.878-.08-.14.079.305.119.461.078.303.155.596.253.893.048.146.157.6.148.446-.016-.311.179.431.179.431s.102-1.635.074-1.338c-.027.292-.02.592-.089.877-.036.147-.019-.31-.015-.461.007-.274.03-.606.075-.877.023-.145.08-.578.088-.432.02.298.004.002.03-.445a.433.433 0 0 0-.416-.447m-1.918-.312a.42.42 0 0 0-.416.431c.317 1.657.392 2.025.312 1.666a11 11 0 0 0-.298-1.1c-.06-.179.08.366.12.55.094.436.139.65.237 1.085.042.183.153.737.134.55-.039-.366.134.565.134.565s.138-2.033.104-1.665c-.033.36-.045.727-.09 1.085-.022.185.02-.379.03-.565.02-.336.047-.75.09-1.085.022-.181.098-.718.089-.535-.018.369-.004.007 0-.55a.445.445 0 0 0-.446-.432m-1.725-.357a.42.42 0 0 0-.431.417c.19 1.248.203 1.386.178 1.249-.025-.14-.108-.558-.09-.417q.056.42.15.833c.03.137.134.833.134.833s.268-1.388.237-1.25c-.03.137-.096.552-.059.417.074-.272.13-.54.178-.818.025-.14.006-.005.134-.833a.43.43 0 0 0-.431-.43M38.32 31.09a.44.44 0 0 0-.312.118c-2.183.441-2.858.572-2.186.431a20 20 0 0 1 2.052-.297c.06-.006-.102.066-.149.104-.048.038-.084.082-.133.12-.203.15-.406.304-.625.43a3.57 3.57 0 0 1-2.127.447 3.4 3.4 0 0 1-.802-.194c-.067-.023-.26-.052-.194-.074 1.452.92 3.5.858 4.758-.357a.414.414 0 0 0 .016-.595.42.42 0 0 0-.298-.134m-4.476 1.085c.65-.222-.193-.09-.193-.09.058.042.133.052.193.09"/><path fill="#150b14" d="M36.967 29.915c-.362 0-.74.07-1.1.238-.52.242-.969.641-1.413.996-.833.664-1.676 1.383-2.662 1.814-1.135.495-1.946.28-2.558-.773.108.223.225.435.387.624 1.128 1.313 3.129.035 4.208-.654.309-.197.616-.407.922-.61.338-.223.682-.451 1.041-.64 1.033-.539 2.41-.111 2.721 1.071a.43.43 0 1 0 .833-.208 2.445 2.445 0 0 0-2.38-1.858"/></g></svg>