<svg xmlns="http://www.w3.org/2000/svg" width="193.293" height="187.132" viewBox="0 0 51.142 49.512"><g style="clip-rule:evenodd;fill-rule:nonzero;stroke-linecap:round;stroke-linejoin:round"><path fill="#9d521b" d="M22.641 3.641c-6.335 0-11.476 5.14-11.476 11.476 0 1.838-.096 5.097 1.234 5.096h6.341c.67 0 1.208-.853 1.208-1.913v-2.466c0-2.031 1.505-3.674 3.36-3.674s3.36 1.643 3.36 3.674c0 0 .095 3.038-.235 4.741s-1.745 3.004-1.745 3.004L12.852 38.105c-1.039 1.144-1.13 7.715 0 7.715h23.404c1.131 0 2.052-.781 2.052-1.736V38.95c0-.956-.92-1.724-2.052-1.724h-11.69l9.4-12.495c1.04-1.145 1.473-6.438 1.473-9.614 0-6.335-5.129-11.476-11.464-11.476z"/><path fill="#150b14" d="M11.832 16.363c-.25 0-.476.07-.704.138-.085 1.393.036 3.713 1.27 3.712h2.53c.248-.39.428-.824.428-1.321a2.53 2.53 0 0 0-2.53-2.53z"/><path fill="#303030" d="M23.363 14.639c-1.1.48-2.209.942-3.335 1.359-1.13.418-2.268.789-3.373 1.27a.363.363 0 1 0 .29.668c.924-.396 1.81-.854 2.706-1.31a88 88 0 0 0 3.712-1.987m2.277 1.724c-1.596.414-3.176.88-4.782 1.258-1.078.254-2.172.44-3.259.654a.366.366 0 0 0 .139.718c2.727-.522 5.299-1.692 7.902-2.63m-9.425 2.781a.355.355 0 0 0-.44.251.355.355 0 0 0 .252.44c.974.266 1.955.508 2.944.718.8.17 1.612.341 2.428.403 1.027.076 2.059-.063 3.083-.101-1.098-.058-2.24.014-3.322-.226-1.686-.376-3.278-1.043-4.945-1.485m4.366-10.482c-.557 1.366-2.019 2.64-3.573 2.541-.424-.026-.827-.198-1.233-.314-.246-.07-.462-.15-.705-.013a.78.78 0 0 0-.34.428q.002.007 0 .013c-.08.07-.143.162-.138.277l.038.93c.004.103.006.362.038.592q-.002.013 0 .025c.02.126.035.27.1.315.21.143.492.122.591-.139.024-.06-.013-.13-.012-.2.003.008.022.003.025.012v-.252c-.002-.06-.01-.117-.013-.176-.001-.066.003-.135 0-.201-.002-.07-.01-.132-.012-.202-.009-.245-.014-.497-.025-.742-.002-.045-.034-.074-.05-.113.002-.009-.003-.017 0-.026.027-.098.198-.136.075-.125-.011 0 .026-.002.038 0 .028.004.06.02.088.025.062.01.13.013.188.025.219.043.437.096.655.138.455.09.865.11 1.321 0 1.37-.329 2.516-1.5 2.944-2.818"/><path fill="#c9b09a" d="m24.445 4.957-.035 2.352c-.013.859-.597 1.336-1.305 1.066l-1.938-.74-1.938-.742c-.708-.27-.697-.966.023-1.555l1.974-1.612 1.973-1.611c.72-.589 1.294-.37 1.281.49z"/><path fill="#6f3a1a" d="M24.097 1.707c.213.07.337.291.383.606-.19.04-.397.126-.624.306l-2.083 1.66-2.081 1.655c-.436.346-.59.715-.52 1.021l-.197-.064c-.775-.253-.785-.947-.024-1.552l2.083-1.66 2.081-1.655c.38-.302.728-.4.982-.317"/></g></svg>