<svg xmlns="http://www.w3.org/2000/svg" xmlns:xlink="http://www.w3.org/1999/xlink" width="193.293" height="187.132" viewBox="0 0 51.142 49.512"><defs><linearGradient id="e" x1="581.343" x2="556.715" y1="259.902" y2="141.384" gradientUnits="userSpaceOnUse"><stop offset=".104" style="stop-color:#2edb63"/><stop offset=".74" style="stop-color:#098952"/></linearGradient><linearGradient id="g" x1="650.752" x2="586.166" y1="227.126" y2="167.8" gradientUnits="userSpaceOnUse"><stop offset=".104" style="stop-color:#2edb63"/><stop offset=".74" style="stop-color:#098952"/></linearGradient><linearGradient id="h" x1="604.021" x2="595.475" y1="255.053" y2="148.762" gradientUnits="userSpaceOnUse"><stop offset=".104" style="stop-color:#2edb63"/><stop offset=".74" style="stop-color:#098952"/></linearGradient><linearGradient id="j" x1="593.661" x2="613.032" y1="205.451" y2="205.451" gradientUnits="userSpaceOnUse"><stop offset=".104" style="stop-color:#2edb63"/><stop offset=".74" style="stop-color:#098952"/></linearGradient><linearGradient id="k" x1="2644.588" x2="2698.909" y1="755.784" y2="755.784" gradientTransform="rotate(180 1647.718 438.534)" gradientUnits="userSpaceOnUse"><stop offset=".104" style="stop-color:#2edb63"/><stop offset=".74" style="stop-color:#098952"/></linearGradient><linearGradient id="m" x1="-957.995" x2="-903.674" y1="755.784" y2="755.784" gradientTransform="matrix(1 0 0 -1 1500.2 877.067)" gradientUnits="userSpaceOnUse"><stop offset=".104" style="stop-color:#2edb63"/><stop offset=".74" style="stop-color:#098952"/></linearGradient><linearGradient id="n" x1="601.489" x2="571.474" y1="214.211" y2="127.382" gradientUnits="userSpaceOnUse"><stop offset=".13" style="stop-color:#fff;stop-opacity:0"/><stop offset=".202" style="stop-color:#f9fcfb;stop-opacity:.0955"/><stop offset=".298" style="stop-color:#e8f5ef;stop-opacity:.2238"/><stop offset=".407" style="stop-color:#cce8db;stop-opacity:.3708"/><stop offset=".528" style="stop-color:#a4d7c0;stop-opacity:.5317"/><stop offset=".656" style="stop-color:#72c19d;stop-opacity:.7039"/><stop offset=".79" style="stop-color:#36a673;stop-opacity:.8829"/><stop offset=".878" style="stop-color:#0a9355"/></linearGradient><linearGradient id="o" x1="2673.275" x2="2724.543" y1="755.784" y2="755.784" gradientTransform="rotate(180 1647.718 438.534)" gradientUnits="userSpaceOnUse"><stop offset=".104" style="stop-color:#2edb63"/><stop offset=".74" style="stop-color:#098952"/></linearGradient><linearGradient id="q" x1="2678.377" x2="2701.374" y1="726.534" y2="726.534" gradientTransform="rotate(180 1647.718 438.534)" gradientUnits="userSpaceOnUse"><stop offset=".104" style="stop-color:#2edb63"/><stop offset=".74" style="stop-color:#098952"/></linearGradient><clipPath id="f"><use xlink:href="#a" width="100%" height="100%" style="overflow:visible"/></clipPath><clipPath id="i"><use xlink:href="#b" width="100%" height="100%" style="overflow:visible"/></clipPath><clipPath id="l"><use xlink:href="#c" width="100%" height="100%" style="overflow:visible"/></clipPath><clipPath id="p"><use xlink:href="#d" width="100%" height="100%" style="overflow:visible"/></clipPath><path id="a" d="m596.527 242.69-25.634-80.849h-28.687z"/><path id="b" d="m622.16 161.841-25.633 80.849-25.634-80.849z"/><path id="c" d="m596.527 80.859 25.633 80.849h28.688z"/><path id="d" d="m570.893 161.708 25.634-80.849 25.633 80.849z"/><radialGradient id="r" cx="568.133" cy="149.816" r="46.986" gradientUnits="userSpaceOnUse"><stop offset=".13" style="stop-color:#fff"/><stop offset=".208" style="stop-color:#f9f9fc;stop-opacity:.8954"/><stop offset=".313" style="stop-color:#e9e8f4;stop-opacity:.7548"/><stop offset=".434" style="stop-color:#cdcce6;stop-opacity:.5937"/><stop offset=".565" style="stop-color:#a7a5d3;stop-opacity:.4175"/><stop offset=".706" style="stop-color:#7672bb;stop-opacity:.2288"/><stop offset=".853" style="stop-color:#3b369e;stop-opacity:.0325"/><stop offset=".877" style="stop-color:#312b99;stop-opacity:0"/></radialGradient></defs><g transform="translate(-132.999 -18.346)scale(.26458)"><use xlink:href="#a" width="100%" height="100%" style="overflow:visible;fill:url(#e)"/><path d="m608.857 214.6-72.654-50.101-20.507 28.628z" clip-path="url(#f)" style="opacity:.3;fill:#00a451"/></g><path d="m650.848 161.841-54.321 80.849 25.633-80.849z" style="fill:url(#g)" transform="translate(-132.999 -18.346)scale(.26458)"/><g transform="translate(-132.999 -18.346)scale(.26458)"><use xlink:href="#b" width="100%" height="100%" style="overflow:visible;fill:url(#h)"/><path d="m644.229 214.095-72.653-50.102-20.507 28.629z" clip-path="url(#i)" style="opacity:.2;fill:#00a451"/><path d="m619.519 187.73-57.787 63.51 25.347 26.421z" clip-path="url(#i)" style="opacity:.2;fill:#00a451"/><path d="m637.005 130.982-57.787 63.51 25.347 26.422z" clip-path="url(#i)" style="opacity:.2;fill:#00a451"/></g><path d="M567.641 173.518a1.982 1.982 0 1 0-.514-3.93 1.982 1.982 0 0 0 .514 3.93m50.948 25.587a1.982 1.982 0 1 0-.514-3.93 1.982 1.982 0 0 0 .514 3.93m-31.247-29.022a.735.735 0 1 0 1.47 0 .735.735 0 0 0-1.47 0m36.073 9.46a.735.735 0 1 0 1.47 0 .735.735 0 0 0-1.47 0m-23.304-8.725a.735.735 0 1 0 1.47 0 .735.735 0 0 0-1.47 0m23.304 16.912a.735.735 0 1 0 1.47 0 .735.735 0 0 0-1.47 0m-31.224 6.693a.735.735 0 1 0 1.47 0 .735.735 0 0 0-1.47 0" style="opacity:.25;fill:#dc8120" transform="translate(-132.999 -18.346)scale(.26458)"/><path d="m593.661 202.382 19.371 4.572-5.175 1.566z" style="fill:url(#j)" transform="translate(-132.999 -18.346)scale(.26458)"/><g transform="translate(-132.999 -18.346)scale(.26458)"><use xlink:href="#c" width="100%" height="100%" style="overflow:visible;fill:url(#k)"/><path d="m579.089 115.028 72.654 50.102 20.507-28.628z" clip-path="url(#l)" style="opacity:.3;fill:#00a451"/></g><path d="m542.206 161.708 54.321-80.849-25.634 80.849z" style="fill:url(#m)" transform="translate(-132.999 -18.346)scale(.26458)"/><path d="m542.206 161.708 54.321-80.849-25.634 80.849z" style="fill:url(#n)" transform="translate(-132.999 -18.346)scale(.26458)"/><g transform="translate(-132.999 -18.346)scale(.26458)"><use xlink:href="#d" width="100%" height="100%" style="overflow:visible;fill:url(#o)"/><path d="m548.824 109.454 72.654 50.101 20.506-28.628z" clip-path="url(#p)" style="opacity:.55;fill:#00a451"/><path d="m573.534 135.819 57.787-63.51-25.347-26.421z" clip-path="url(#p)" style="opacity:.55;fill:#00a451"/><path d="m556.048 192.566 57.787-63.509-25.347-26.422z" clip-path="url(#p)" style="opacity:.55;fill:#00a451"/></g><path d="M625.412 150.031a1.982 1.982 0 1 0 .514 3.93 1.982 1.982 0 0 0-.514-3.93m-50.948-25.588a1.982 1.982 0 1 0 .515 3.931 1.982 1.982 0 0 0-.515-3.931m31.247 29.023a.735.735 0 1 0-1.47 0 .735.735 0 0 0 1.47 0m-36.073-9.46a.735.735 0 1 0-1.47 0 .735.735 0 0 0 1.47 0m23.304 8.725a.735.735 0 1 0-1.47 0 .735.735 0 0 0 1.47 0m-23.304-16.912a.735.735 0 1 0-1.47 0 .735.735 0 0 0 1.47 0m31.224-6.693a.735.735 0 1 0-1.47 0 .735.735 0 0 0 1.47 0" style="opacity:.25;fill:#dc8120" transform="translate(-132.999 -18.346)scale(.26458)"/><path d="m617.058 156.508-22.997-5.719 5.669-6.231z" style="fill:url(#q)" transform="translate(-132.999 -18.346)scale(.26458)"/><path d="M549.724 161.708h21.169l23.168-73.073z" style="opacity:.55;fill:#00a451" transform="translate(-132.999 -18.346)scale(.26458)"/><path d="m571.893 158.555 14.585 52.442-15.585-49.289h-28.687l27.432-1.98 24.423-71.093z" style="fill:url(#r)" transform="translate(-132.999 -18.346)scale(.26458)"/></svg>