<svg xmlns="http://www.w3.org/2000/svg" width="193.293" height="187.132" viewBox="0 0 51.142 49.512"><defs><path id="J" d="M339.237-33.772h408.177v294.351H339.237z"/><path id="a" d="m352.744 129.509-20.105-29.486h-27.224l12.562 29.486z"/><path id="b" d="m305.415 100.023 12.562 29.486h-62.131l12.562-29.486z"/><path id="c" d="m286.911 227.49-31.065-97.981h62.131z"/><path id="d" d="M332.639 100.023h-27.224l12.562 29.486h34.767z"/><path id="e" d="M317.977 129.509h-62.131l12.562-29.486h37.007z"/><path id="f" d="M255.846 129.509h62.131l-31.066 97.981z"/><path id="g" d="M317.977 129.509h34.767l-20.105-29.486h-27.224z"/><path id="h" d="M268.408 100.023h37.007l12.562 29.486h-62.131z"/><path id="i" d="m317.977 129.509-31.066 97.981-31.065-97.981z"/><path id="j" d="M97.761 372.257c13.443 14.542 80.258 10.062 93.346 0s11.141-85.514 0-93.346-84.422-10.972-93.346 0c-8.925 10.973-13.443 78.804 0 93.346"/><path id="k" d="m596.527 242.69-25.634-80.849h-28.687z"/><path id="l" d="m622.16 161.841-25.633 80.849-25.634-80.849z"/><path id="m" d="m596.527 80.859 25.633 80.849h28.688z"/><path id="n" d="m570.893 161.708 25.634-80.849 25.633 80.849z"/><path id="o" d="M253.01 353.699v-28.433l34.629-42.986 18.091 52.979-11.465 37.397-24.638 18.014z"/></defs><g style="font-style:normal;font-variant:normal;font-weight:400;font-stretch:normal;font-size:45px;line-height:100%;font-family:&quot;Gentium Plus&quot;;-inkscape-font-specification:&quot;Gentium Plus, Normal&quot;;text-align:start;letter-spacing:0;word-spacing:0;writing-mode:lr-tb;text-anchor:start;fill:#005b00;fill-opacity:1;stroke:none"><path d="M-63.024 237.13q2.68-3.8 4.12-7.2.72-1.68.72-2.2 0-.48-.44-.48-.32 0-.72.16-2.96 1.24-4.08 1.24-.88 0-2.12-.64-1.24 1.88-3.44 4.32 1.04 1 3.56 1.56 1 .2 1.6 1 .84 1.12.84 1.88 0 .12-.04.36m-1.8-10.2q.48.08.8.08 1.12 0 3.12-.64 1.28-.4 2.72-1.28.64-.4 1.04-.4.64 0 2.32 1.24 1 .72 1 1.2 0 .36-.72.92-.36.28-.6.64-.28.36-1.12 2.12-4.48 9.52-13.96 16.12-1.64 1.12-3.92 2.4-.2.12-.32.12-.44 0-.44-.44 0-.2.12-.32.16-.12 2.48-1.88 5.52-4.44 8.84-9.12-.28.16-.48.16-1 0-2.72-1.52-1.48-1.28-2.88-3.36-2.6 2.56-4.28 3.76-.8.56-1 .56-.4 0-.4-.36 0-.24 1.84-2.12 2.52-2.52 5.04-6.84 1.24-2.12 1.24-3.16 0-.64-.36-1.2t-.36-.92q0-.84.88-.84 1.08 0 2.76 1.32.92.72.92 1.28 0 .24-.32.56-.48.56-1.24 1.92" style="font-size:40px;font-family:TPKaisho-GT01;-inkscape-font-specification:TPKaisho-GT01;text-align:center;text-anchor:middle;fill:#005b00;fill-opacity:1" transform="matrix(1.64667 0 0 1.79439 130.871 -397.86)"/></g></svg>