<svg xmlns="http://www.w3.org/2000/svg" width="193.293" height="187.132" viewBox="0 0 51.142 49.512"><defs><path id="J" d="M339.237-33.772h408.177v294.351H339.237z"/><path id="a" d="m352.744 129.509-20.105-29.486h-27.224l12.562 29.486z"/><path id="b" d="m305.415 100.023 12.562 29.486h-62.131l12.562-29.486z"/><path id="c" d="m286.911 227.49-31.065-97.981h62.131z"/><path id="d" d="M332.639 100.023h-27.224l12.562 29.486h34.767z"/><path id="e" d="M317.977 129.509h-62.131l12.562-29.486h37.007z"/><path id="f" d="M255.846 129.509h62.131l-31.066 97.981z"/><path id="g" d="M317.977 129.509h34.767l-20.105-29.486h-27.224z"/><path id="h" d="M268.408 100.023h37.007l12.562 29.486h-62.131z"/><path id="i" d="m317.977 129.509-31.066 97.981-31.065-97.981z"/><path id="j" d="M97.761 372.257c13.443 14.542 80.258 10.062 93.346 0s11.141-85.514 0-93.346-84.422-10.972-93.346 0c-8.925 10.973-13.443 78.804 0 93.346"/><path id="k" d="m596.527 242.69-25.634-80.849h-28.687z"/><path id="l" d="m622.16 161.841-25.633 80.849-25.634-80.849z"/><path id="m" d="m596.527 80.859 25.633 80.849h28.688z"/><path id="n" d="m570.893 161.708 25.634-80.849 25.633 80.849z"/><path id="o" d="M253.01 353.699v-28.433l34.629-42.986 18.091 52.979-11.465 37.397-24.638 18.014z"/></defs><g style="font-style:normal;font-variant:normal;font-weight:400;font-stretch:normal;font-size:45px;line-height:100%;font-family:&quot;Gentium Plus&quot;;-inkscape-font-specification:&quot;Gentium Plus, Normal&quot;;text-align:start;letter-spacing:0;word-spacing:0;writing-mode:lr-tb;text-anchor:start;fill:#009800;fill-opacity:1;stroke:none"><path d="M-70.621 237.17q.44 2.24.64 3.16 1.04 5.16 1.64 7.44 6.56-2.04 11.2-2 1.16-3.6 1.84-6.52.56-2.24.56-2.72 0-.8-.8-.8-.44 0-6.12.84-2 .32-5 1.04-1.32.32-1.8.32-.72 0-2.16-.76m-.48-1.36q4.8-.4 13.24-1.44 1.44-.2 1.84-.36.28-.12.72-.44.48-.36.88-.36.52 0 2.56 1.4 1.44 1 1.44 1.56 0 .44-.56.88-.36.28-.68.88-.16.24-.84 2.08-.88 2.2-2.68 6.28 1.48.8 1.48 1.72 0 .48-.4.84-.36.32-.88.32-.32 0-1.6-.32-1.96-.48-4.92-.48-3.64 0-6.64 1-.08 1.44-1 1.44-1 0-1.8-1.92-.32-.76-.4-2.16-.4-5.44-1.4-8.84-.4-1.36-1.4-2.24-.2-.2-.2-.48 0-.64.64-.64 1.6 0 2.6 1.28" style="font-size:40px;font-family:TPKaisho-GT01;-inkscape-font-specification:TPKaisho-GT01;text-align:center;text-anchor:middle;fill:#009800;fill-opacity:1" transform="matrix(1.47576 0 0 2.4661 115.95 -571.638)"/></g></svg>