<svg xmlns="http://www.w3.org/2000/svg" xmlns:xlink="http://www.w3.org/1999/xlink" width="193.293" height="187.132" viewBox="0 0 51.142 49.512"><defs><radialGradient id="b" cx="283.754" cy="335.259" r="64.155" gradientUnits="userSpaceOnUse"><stop offset=".133" style="stop-color:#d8417f"/><stop offset=".235" style="stop-color:#cb3a77"/><stop offset=".434" style="stop-color:#b92f6b"/><stop offset=".641" style="stop-color:#ae2864"/><stop offset=".867" style="stop-color:#aa2662"/></radialGradient><radialGradient id="c" cx="271.138" cy="420.279" r="216.306" gradientUnits="userSpaceOnUse"><stop offset=".133" style="stop-color:#d8417f"/><stop offset=".235" style="stop-color:#cb3a77"/><stop offset=".434" style="stop-color:#b92f6b"/><stop offset=".641" style="stop-color:#ae2864"/><stop offset=".867" style="stop-color:#aa2662"/></radialGradient><radialGradient id="e" cx="342.487" cy="451.094" r="61.203" gradientUnits="userSpaceOnUse"><stop offset="0" style="stop-color:#dcd3ea"/><stop offset=".332" style="stop-color:#dad0e8"/><stop offset=".528" style="stop-color:#d2c8e2"/><stop offset=".689" style="stop-color:#c5bad8"/><stop offset=".831" style="stop-color:#b3a6ca"/><stop offset=".959" style="stop-color:#9c8cb7"/><stop offset="1" style="stop-color:#9382b0"/></radialGradient><radialGradient id="f" cx="391.5" cy="981.735" r="61.202" gradientTransform="rotate(30.356 1247.317 535.133)" gradientUnits="userSpaceOnUse"><stop offset="0" style="stop-color:#dcd3ea"/><stop offset=".332" style="stop-color:#dad0e8"/><stop offset=".528" style="stop-color:#d2c8e2"/><stop offset=".689" style="stop-color:#c5bad8"/><stop offset=".831" style="stop-color:#b3a6ca"/><stop offset=".959" style="stop-color:#9c8cb7"/><stop offset="1" style="stop-color:#9382b0"/></radialGradient><radialGradient id="g" cx="258.508" cy="296.423" r="94.426" gradientUnits="userSpaceOnUse"><stop offset=".133" style="stop-color:#d8417f"/><stop offset=".235" style="stop-color:#cb3a77"/><stop offset=".434" style="stop-color:#b92f6b"/><stop offset=".641" style="stop-color:#ae2864"/><stop offset=".867" style="stop-color:#aa2662"/></radialGradient><radialGradient id="h" cx="323.01" cy="377.427" r="109.602" gradientUnits="userSpaceOnUse"><stop offset="0" style="stop-color:#dcd3ea"/><stop offset=".332" style="stop-color:#dad0e8"/><stop offset=".528" style="stop-color:#d2c8e2"/><stop offset=".689" style="stop-color:#c5bad8"/><stop offset=".831" style="stop-color:#b3a6ca"/><stop offset=".959" style="stop-color:#9c8cb7"/><stop offset="1" style="stop-color:#9382b0"/></radialGradient><radialGradient id="i" cx="314.416" cy="372.578" r="108.102" gradientUnits="userSpaceOnUse"><stop offset=".133" style="stop-color:#d8417f"/><stop offset=".235" style="stop-color:#cb3a77"/><stop offset=".434" style="stop-color:#b92f6b"/><stop offset=".641" style="stop-color:#ae2864"/><stop offset=".867" style="stop-color:#aa2662"/></radialGradient><clipPath id="d"><use xlink:href="#a" width="100%" height="100%" style="overflow:visible"/></clipPath><path id="a" d="M253.01 353.699v-28.433l34.629-42.986 18.091 52.979-11.465 37.397-24.638 18.014z"/></defs><path d="m287.639 257.105 38.973 58.011 3.223 30.618-24.105 44.936-29.656 22.744-38.4-45.12 1.294-39.838 18.585-35.562z" style="fill:url(#b)" transform="matrix(.3451 0 0 .26458 -73.814 -64.25)"/><g transform="matrix(.3451 0 0 .26458 -73.814 -64.25)"><use xlink:href="#a" width="100%" height="100%" style="overflow:visible;fill:url(#c)"/><path d="M244.421 376.221 337 305.054l-8.986 62.131-53.6 47.497z" clip-path="url(#d)" style="opacity:.29;fill:url(#e)"/><path d="m236.338 373.806 115.854-14.617-39.156 49.07-70.256 13.893z" clip-path="url(#d)" style="opacity:.29;fill:url(#f)"/></g><path d="m257.553 292.894-18.585 35.562 14.042-3.19 34.629-42.986v-25.175z" style="fill:url(#g)" transform="matrix(.3451 0 0 .26458 -73.814 -64.25)"/><path d="m257.553 292.894-18.585 35.562 14.042-3.19 34.629-42.986v-25.175z" style="opacity:.55;fill:url(#h)" transform="matrix(.3451 0 0 .26458 -73.814 -64.25)"/><path d="m305.73 390.67-11.465-18.014 11.465-37.397 24.105 10.475z" style="fill:url(#i)" transform="matrix(.3451 0 0 .26458 -73.814 -64.25)"/><path d="M287.639 282.28c-10.741 14.953-22.051 29.482-33.532 43.869l.311-.844c-.065 3.462-.261 10.423-.384 13.882-.095 3.456-.354 10.425-.508 13.879l-.118-.573a756 756 0 0 1 4.188 9.483c4.156 9.505 8.219 19.041 12.031 28.695-6.489-12.219-12.584-24.625-18.549-37.102l-.122-.258.005-.316.099-6.944c.145-6.185.319-14.642.544-20.824l.015-.479.296-.366c11.612-14.28 23.4-28.424 35.724-42.102" style="fill:#aa4d7b" transform="matrix(.3451 0 0 .26458 -73.814 -64.25)"/></svg>