<svg xmlns="http://www.w3.org/2000/svg" width="193.293" height="187.132" viewBox="0 0 51.142 49.512"><g style="clip-rule:evenodd;fill-rule:nonzero;stroke-linecap:round;stroke-linejoin:round"><path fill="#a5a4a2" d="M23.368 4.803c-.32 0-.58.148-.82.296 0 0-11.28 5.9-11.75 6.576-.468.675 0 5.338 0 5.338 0 .684 1.058 1.238 2.357 1.238h7.941c.449 0 .813.309.813.69v16.31c0 .381-.364.69-.813.69h-7.744c-.806 0-1.459.554-1.459 1.238v5.39c0 .683.653 1.237 1.46 1.237h25.016c.805 0 1.459-.554 1.459-1.237v-5.39c0-.684-.654-1.238-1.46-1.238h-6.923c-.448 0-.812-.309-.812-.69V6.042c0-.684-.654-1.238-1.46-1.238z"/><path fill="#150b14" d="M11.71 11.023c-.555.246-.953.436-1.012.5-.202.224-.066 1.43-.022 1.798.99-.121 1.755-.645 1.755-1.303 0-.398-.285-.748-.722-.995"/><path fill="#303030" d="M25.748 11.82c-1.822 1.002-3.735 1.787-5.775 2.216-1.332.28-2.69.313-4.032.521a.264.264 0 0 0-.217.303c.022.143.159.24.302.218 1.144-.173 2.286-.26 3.414-.533 2.254-.545 4.344-1.504 6.308-2.724m-.412 2.3c-1.458.637-2.953 1.204-4.516 1.525-.896.185-1.813.259-2.724.34-1.108.098-2.216.143-3.305-.122a.26.26 0 0 0-.315.194.26.26 0 0 0 .194.315c1.307.321 2.552.16 3.862-.049.787-.125 1.577-.244 2.349-.448 1.552-.407 3.022-1.042 4.455-1.755"/><path fill="#303030" d="M26.377 12.802c-1.79.729-3.581 1.483-5.46 1.96a20.3 20.3 0 0 1-3.474.546.26.26 0 0 0-.243.278.26.26 0 0 0 .279.242c3.178-.225 6.068-1.675 8.898-3.026"/><path fill="#6a884e" d="M18.63 10.334c0-.823.846-1.49 1.89-1.49s1.892.667 1.892 1.49-.847 1.49-1.891 1.49-1.892-.667-1.892-1.49"/><path fill="#303030" d="M20.554 8.77c-.574.002-1.133.256-1.622.533a9.2 9.2 0 0 0-1.829 1.331c-.272.263-.494.571-.738.86a.27.27 0 0 0 .024.375.27.27 0 0 0 .376-.024c.702-.825 1.452-1.612 2.36-2.215.424-.282.922-.557 1.441-.594.414-.028.77.197 1.126.376.389.195.796.412 1.235.46.644.07 1.3-.332 1.84-.618-.537.245-1.21.613-1.828.509-.864-.145-1.49-.996-2.385-.993"/><path fill="#303030" d="M23.726 10.114c-.247.33-.527.614-.86.86-.646.475-1.524.85-2.336.629-.384-.104-.717-.325-1.066-.508a4.5 4.5 0 0 0-1.04-.388.26.26 0 0 0-.316.194c-.034.14.041.28.182.315.74.185 1.408.615 2.167.738 1.324.214 2.615-.783 3.269-1.84"/><path fill="#150b14" d="M20.332 10.228c0-.764.085-1.383.189-1.383s.188.619.188 1.383-.084 1.383-.188 1.383-.19-.62-.19-1.383"/><path fill="#c9b09a" d="m30.162 6.754-.042 2.41c-.016.88-.722 1.37-1.576 1.092l-2.341-.759-2.34-.758c-.855-.278-.843-.991.028-1.594l2.383-1.652 2.383-1.65c.87-.604 1.563-.38 1.548.501z"/><path fill="#757a7e" d="M29.742 3.424c.257.071.406.299.463.62-.23.042-.48.13-.754.315l-2.517 1.7-2.513 1.696c-.526.355-.712.733-.628 1.047l-.237-.066c-.937-.26-.948-.97-.03-1.59l2.517-1.701 2.513-1.696c.46-.31.879-.41 1.186-.325"/><path fill="#303030" d="M17.285 36.373c-1.41.789-1.718.97-1.404.787.391-.228.774-.469 1.138-.738.075-.056-.18.048-.267.084-.095.04-.394.226-.484.279q-.466.272-.92.569c-.148.098-.602.365-.436.302.34-.13-.448.29-.448.29s1.922-.458 1.502-.362c-.33.075-.656.17-.993.206-.176.018.339-.097.508-.146.416-.12.829-.24 1.26-.29.082-.01.171-.012.254-.025.079-.012.307-.068.23-.048-.419.104-.001.006.242-.049a.44.44 0 0 0-.182-.86m-.363 1.538c-1.568.803-2.01 1.042-1.574.812.438-.232.876-.48 1.284-.763.082-.058-.196.04-.29.073a9 9 0 0 0-.558.254c-.446.217-.88.455-1.296.726-.08.053-.161.114-.241.17-.08.055-.32.206-.23.17.454-.19-.23.168-.23.169 0 0 2.092-.474 1.634-.376-.456.098-.907.198-1.368.267-.095.014.176-.065.266-.097s.176-.068.266-.097a7 7 0 0 1 1.66-.327 7 7 0 0 0 .277-.024c.09-.01.354-.059.267-.037-.455.116.006 0 .278-.048a.436.436 0 0 0 .351-.508.433.433 0 0 0-.496-.364m-.157 1.695c-1.231.655-1.51.808-1.235.654.343-.191.68-.392.992-.63.066-.05-.164.022-.241.05-.095.032-.349.18-.437.23-.272.152-.526.322-.786.496-.127.084-.534.299-.388.254.301-.093-.375.254-.375.254s1.644-.275 1.283-.218c-.28.044-.564.112-.847.109-.151-.002.3-.086.448-.12.357-.086.71-.152 1.077-.159.069 0 .137.004.206 0 .065-.003.257-.036.194-.024-.359.069 0-.01.206-.036a.44.44 0 0 0 .387-.484.43.43 0 0 0-.484-.376m.024 1.538c.07-.058-.18.024-.267.048a4 4 0 0 0-.484.218c-.373.2-.718.444-1.053.702-.065.05-.13.107-.194.158-.063.05-.268.19-.193.157.385-.169-.182.145-.182.145l1.332-.278a14 14 0 0 1-1.114.194c-.08.01.154-.057.23-.085l.23-.085c.368-.128.748-.245 1.138-.278.143-.012.293.002.436 0 .066-.002.256-.03.194-.012-.37.102.003-.003.217-.012a.435.435 0 0 0 .424-.448.446.446 0 0 0-.46-.424c-1.316.716-1.671.926-1.307.714a7.5 7.5 0 0 0 1.053-.714"/></g></svg>