<svg xmlns="http://www.w3.org/2000/svg" width="193.293" height="187.132" viewBox="0 0 51.142 49.512"><defs><path id="J" d="M339.237-33.772h408.177v294.351H339.237z"/><path id="a" d="m352.744 129.509-20.105-29.486h-27.224l12.562 29.486z"/><path id="b" d="m305.415 100.023 12.562 29.486h-62.131l12.562-29.486z"/><path id="c" d="m286.911 227.49-31.065-97.981h62.131z"/><path id="d" d="M332.639 100.023h-27.224l12.562 29.486h34.767z"/><path id="e" d="M317.977 129.509h-62.131l12.562-29.486h37.007z"/><path id="f" d="M255.846 129.509h62.131l-31.066 97.981z"/><path id="g" d="M317.977 129.509h34.767l-20.105-29.486h-27.224z"/><path id="h" d="M268.408 100.023h37.007l12.562 29.486h-62.131z"/><path id="i" d="m317.977 129.509-31.066 97.981-31.065-97.981z"/><path id="j" d="M97.761 372.257c13.443 14.542 80.258 10.062 93.346 0s11.141-85.514 0-93.346-84.422-10.972-93.346 0c-8.925 10.973-13.443 78.804 0 93.346"/><path id="k" d="m596.527 242.69-25.634-80.849h-28.687z"/><path id="l" d="m622.16 161.841-25.633 80.849-25.634-80.849z"/><path id="m" d="m596.527 80.859 25.633 80.849h28.688z"/><path id="n" d="m570.893 161.708 25.634-80.849 25.633 80.849z"/><path id="o" d="M253.01 353.699v-28.433l34.629-42.986 18.091 52.979-11.465 37.397-24.638 18.014z"/></defs><g style="font-style:normal;font-variant:normal;font-weight:400;font-stretch:normal;font-size:45px;line-height:100%;font-family:&quot;Gentium Plus&quot;;-inkscape-font-specification:&quot;Gentium Plus, Normal&quot;;text-align:start;letter-spacing:0;word-spacing:0;writing-mode:lr-tb;text-anchor:start;fill:green;fill-opacity:1;stroke:none"><path d="M-56.264 254.57q.56 0 1.16.56 2.24 2.16 2.24 2.88 0 .44-.56.8-.44.32-.64.56-.08.2-2 4.84-2.48 6.08-7.52 10.76-4.32 4.04-6.28 5.08-.2.12-.36.12-.48 0-.48-.52 0-.36 1.4-1.44 2.84-2.28 5.88-6.36 3.72-4.96 5.72-10.52.96-2.68.96-3.44 0-.72-1-.72-.96 0-8.76 1.24-3.44.52-3.8.52-.68 0-1.64-.44-1.8-.88-1.8-1.44 0-.52.72-.52 8.2-.16 13.68-.96 1.28-.2 2.32-.8.4-.2.76-.2m-16.72 10q.16 0 .56.04.72.08 1.64.08 4.64 0 7.96-1.8.84-.48 1.76-.48.64 0 1.24.24.72.28.72.88 0 .84-1.96 1.64-2.72 1.16-6.48 1.16-3.28 0-5.36-.8-.56-.2-.56-.52 0-.44.48-.44" style="font-size:40px;font-family:TPKaisho-GT01;-inkscape-font-specification:TPKaisho-GT01;text-align:center;text-anchor:middle;fill:green" transform="matrix(1.71214 0 0 1.81249 132.122 -460.285)"/></g></svg>